<svg width="12" height="12" viewBox="0 0 12 12" fill="none" xmlns="http://www.w3.org/2000/svg">
<g id="clock 1" clip-path="url(#clip0_0_339)">
<g id="Group">
<g id="Group_2">
<path id="Vector" d="M8.13706 7.05953L6.46393 5.80469V3.24855C6.46393 2.99153 6.25618 2.78378 5.99916 2.78378C5.74214 2.78378 5.53439 2.99153 5.53439 3.24855V6.0371C5.53439 6.18349 5.60318 6.32153 5.7203 6.40891L7.57932 7.80318C7.66297 7.86592 7.76058 7.89613 7.85771 7.89613C7.99946 7.89613 8.13889 7.83245 8.22999 7.70976C8.38433 7.50478 8.34249 7.21338 8.13706 7.05953Z" fill="#25292D"/>
</g>
</g>
<g id="Group_3">
<g id="Group_4">
<path id="Vector_2" d="M6 0C2.6914 0 0 2.6914 0 6C0 9.3086 2.6914 12 6 12C9.3086 12 12 9.3086 12 6C12 2.6914 9.3086 0 6 0ZM6 11.0705C3.20449 11.0705 0.929508 8.79551 0.929508 6C0.929508 3.20449 3.20449 0.929508 6 0.929508C8.79598 0.929508 11.0705 3.20449 11.0705 6C11.0705 8.79551 8.79551 11.0705 6 11.0705Z" fill="#25292D"/>
</g>
</g>
</g>
<defs>
<clipPath id="clip0_0_339">
<rect width="12" height="12" fill="white"/>
</clipPath>
</defs>
</svg>
